<?xml version="1.0" encoding="UTF-8" standalone="no"?>
<svg
   width="24"
   height="24"
   viewBox="0 0 24 24"
   fill="none"
   version="1.1"
   id="svg234"
   sodipodi:docname="location.svg"
   inkscape:version="1.2 (dc2aedaf03, 2022-05-15)"
   xmlns:inkscape="http://www.inkscape.org/namespaces/inkscape"
   xmlns:sodipodi="http://sodipodi.sourceforge.net/DTD/sodipodi-0.dtd"
   xmlns="http://www.w3.org/2000/svg"
   xmlns:svg="http://www.w3.org/2000/svg">
  <defs
     id="defs238" />
  <sodipodi:namedview
     id="namedview236"
     pagecolor="#505050"
     bordercolor="#eeeeee"
     borderopacity="1"
     inkscape:showpageshadow="0"
     inkscape:pageopacity="0"
     inkscape:pagecheckerboard="0"
     inkscape:deskcolor="#505050"
     showgrid="false"
     inkscape:zoom="17.645833"
     inkscape:cx="1.2467532"
     inkscape:cy="15.811098"
     inkscape:window-width="1920"
     inkscape:window-height="1027"
     inkscape:window-x="-8"
     inkscape:window-y="-8"
     inkscape:window-maximized="1"
     inkscape:current-layer="svg234" />
  <path
     style="color:#000000;clip-rule:evenodd;fill:#6d9c74;fill-rule:evenodd;stroke-linecap:round;stroke-linejoin:round;-inkscape-stroke:none"
     d="M 11.945313,1.9882812 C 7.299408,1.9724939 3.5060217,5.7427598 3.4902344,10.388672 a 0.750075,0.750075 0 0 0 0,0.002 v 0.02734 a 0.750075,0.750075 0 0 0 0,0.02539 c 0.075431,2.195738 0.8319077,4.313077 2.1660156,6.058594 5.531e-4,7.39e-4 0.0014,0.0012 0.00195,0.002 8.944e-4,0.0012 0.00106,0.0027 0.00195,0.0039 1.4256822,1.902473 3.1762831,3.537459 5.1621098,4.84375 0.623063,0.53592 1.555775,0.535001 2.18164,0.0039 1.326413,-0.864423 2.556038,-1.86927 3.654297,-3.009766 a 0.750075,0.750075 0 0 0 0.0039,-0.0039 c 1.966653,-2.075355 3.626276,-4.770099 3.683594,-7.796875 a 0.750075,0.750075 0 0 0 0,-0.01367 v -0.08594 -0.002 c 0.01469,-4.6450302 -3.755135,-8.4392927 -8.40039,-8.4550778 z m -0.0039,1.5000001 c 3.835271,0.013033 6.917321,3.1178332 6.904297,6.9531247 a 0.750075,0.750075 0 0 0 0,0.002 v 0.07227 c -0.04708,2.486218 -1.466093,4.887681 -3.273437,6.794922 -1.037748,1.076877 -2.196573,2.030628 -3.453125,2.841797 a 0.750075,0.750075 0 0 0 -0.08399,0.0625 c -0.07197,0.06225 -0.164361,0.06225 -0.236328,0 a 0.750075,0.750075 0 0 0 -0.08008,-0.06055 C 9.8440043,18.933986 8.1982233,17.39399 6.8574219,15.603516 a 0.750075,0.750075 0 0 0 -0.00586,-0.0078 C 5.7063159,14.09937 5.0570115,12.285238 4.9902344,10.402344 v -0.01172 C 5.0056268,6.55741 8.1076274,3.4752536 11.941406,3.4882813 Z"
     id="path230" />
  <path
     style="color:#000000;fill:#6d9c74;stroke-linecap:round;stroke-linejoin:round;-inkscape-stroke:none"
     d="m 11.917969,7.328125 c -1.76443,0 -3.2109378,1.4465082 -3.2109377,3.210938 0,1.764429 1.4465077,3.210937 3.2109377,3.210937 1.764429,0 3.210937,-1.446508 3.210937,-3.210937 0,-1.7644298 -1.446508,-3.210938 -3.210937,-3.210938 z m 0,1.5 c 0.95377,0 1.710937,0.7571676 1.710937,1.710938 0,0.953769 -0.757167,1.710937 -1.710937,1.710937 -0.95377,0 -1.710938,-0.757168 -1.710938,-1.710937 0,-0.9537704 0.757168,-1.710938 1.710938,-1.710938 z"
     id="circle232" />
</svg>
