<?xml version="1.0" encoding="UTF-8" standalone="no"?>
<svg
   width="16"
   height="16"
   viewBox="0 0 16 16"
   fill="none"
   version="1.1"
   id="svg8"
   sodipodi:docname="calling.svg"
   inkscape:version="1.2 (dc2aedaf03, 2022-05-15)"
   xmlns:inkscape="http://www.inkscape.org/namespaces/inkscape"
   xmlns:sodipodi="http://sodipodi.sourceforge.net/DTD/sodipodi-0.dtd"
   xmlns="http://www.w3.org/2000/svg"
   xmlns:svg="http://www.w3.org/2000/svg">
  <defs
     id="defs12" />
  <sodipodi:namedview
     id="namedview10"
     pagecolor="#505050"
     bordercolor="#eeeeee"
     borderopacity="1"
     inkscape:showpageshadow="0"
     inkscape:pageopacity="0"
     inkscape:pagecheckerboard="0"
     inkscape:deskcolor="#505050"
     showgrid="false"
     inkscape:zoom="52.9375"
     inkscape:cx="8.0094451"
     inkscape:cy="8.0094451"
     inkscape:window-width="1920"
     inkscape:window-height="1027"
     inkscape:window-x="-8"
     inkscape:window-y="-8"
     inkscape:window-maximized="1"
     inkscape:current-layer="svg8" />
  <path
     style="color:#000000;clip-rule:evenodd;fill:#ffffff;fill-rule:evenodd;stroke-linecap:round;stroke-linejoin:round;-inkscape-stroke:none"
     d="M 4.21875,1.1679687 C 3.5390581,1.1365139 2.9997319,1.5412249 2.5390625,1.9316406 2.0885721,2.3134297 1.7659745,2.6760386 1.5859375,2.9667969 1.0131145,3.7600133 1.078197,4.8030535 1.5585937,5.8632812 c 0.6350686,1.5484734 2.0524441,3.3502329 3.6699219,4.9570318 1.6174129,1.606733 3.4110824,2.995305 4.9042974,3.61914 1.071842,0.496062 2.111579,0.533303 2.898437,-0.02344 0.135839,-0.08203 0.250679,-0.174852 0.416016,-0.322266 0.177608,-0.158355 0.381955,-0.359017 0.582031,-0.589844 0.400151,-0.461653 0.827566,-1.01533 0.802734,-1.716797 a 0.50005,0.50005 0 0 0 -0.002,-0.02344 C 14.794992,11.339563 14.562177,11.032017 14.345703,10.810547 14.092597,10.551353 13.62435,10.170118 13.144531,9.8085938 12.904622,9.6278314 12.668398,9.4574616 12.460938,9.3222656 12.253477,9.1870697 12.152906,9.085932 11.863281,9.0253906 11.268587,8.9020627 10.804401,9.1973021 10.507813,9.3671875 10.213309,9.5358787 10.120737,9.5935735 9.9238281,9.5234375 8.2753558,8.846297 7.1524587,7.7239157 6.4746094,6.0761719 6.4056436,5.8802933 6.4644036,5.7859346 6.6328125,5.4921875 6.8029379,5.1954466 7.0984967,4.7315415 6.9746094,4.1367187 6.9144127,3.8457913 6.8129359,3.7465056 6.6777344,3.5390625 6.5425328,3.3316194 6.372175,3.0952984 6.1914062,2.8554688 c -0.3615374,-0.4796594 -0.7421184,-0.948504 -1,-1.2011719 a 0.50005,0.50005 0 0 0 -0.00195,0 l -0.00781,-0.00391 C 4.9596528,1.4346795 4.6562722,1.2057073 4.2382812,1.1699219 A 0.50005,0.50005 0 0 0 4.21875,1.1679687 Z M 4.1640625,2.171875 c 0.075355,0.010035 0.1969786,0.071062 0.3261719,0.1972656 0.150188,0.1471517 0.5600169,0.6337184 0.9023437,1.0878907 0.1711635,0.2270861 0.3316981,0.4515881 0.4472656,0.6289062 0.1155676,0.1773181 0.1835817,0.3859989 0.15625,0.2539062 C 6.0344762,4.5241303 5.9465062,4.6752322 5.7636719,4.9941406 5.5808376,5.3130491 5.3214206,5.8365978 5.5332031,6.421875 a 0.50005,0.50005 0 0 0 0.00586,0.019531 c 0.7693973,1.8826124 2.1379272,3.2489454 4.0214844,4.0175778 a 0.50005,0.50005 0 0 0 0.017578,0.0078 c 0.584872,0.212277 1.108784,-0.04973 1.427734,-0.232422 0.318951,-0.182694 0.469893,-0.2687106 0.654297,-0.230469 -0.130775,-0.027336 0.07645,0.04061 0.253907,0.15625 0.177451,0.11564 0.401766,0.276125 0.628906,0.447266 0.45428,0.342282 0.941896,0.750885 1.08789,0.900391 a 0.50005,0.50005 0 0 0 0,0.002 c 0.124908,0.12779 0.184884,0.249075 0.195313,0.322265 0.0014,0.175525 -0.221724,0.635993 -0.550781,1.015625 -0.166149,0.191686 -0.345856,0.36779 -0.494141,0.5 -0.148285,0.13221 -0.295613,0.235075 -0.277344,0.22461 a 0.50005,0.50005 0 0 0 -0.04297,0.02734 c -0.450559,0.32272 -1.020071,0.345289 -1.914063,-0.07031 a 0.50005,0.50005 0 0 0 -0.01953,-0.0078 C 9.2692327,12.998065 7.4927665,11.660207 5.9335937,10.111328 4.374421,8.5624497 3.0120226,6.7810248 2.4785156,5.4746094 a 0.50005,0.50005 0 0 0 -0.00781,-0.017578 C 2.0639903,4.5632232 2.0722669,3.9874417 2.3964844,3.5449219 A 0.50005,0.50005 0 0 0 2.421875,3.5078125 C 2.4556921,3.4517125 2.8050722,3.0158104 3.1855469,2.6933594 3.5630488,2.3734278 4.011693,2.1684244 4.1640625,2.171875 Z"
     id="path2" />
  <path
     style="color:#000000;fill:#ffffff;stroke-linecap:round;stroke-linejoin:round;-inkscape-stroke:none"
     d="M 9.765625,1.3359375 A 0.5,0.5 0 0 0 9.2128906,1.7792969 0.5,0.5 0 0 0 9.6542969,2.3300781 C 11.892892,2.5786053 13.654633,4.3401103 13.90625,6.578125 a 0.5,0.5 0 0 0 0.552734,0.4394531 0.5,0.5 0 0 0 0.441407,-0.5527344 C 14.597208,3.7681834 12.463105,1.6354098 9.765625,1.3359375 Z"
     id="path4" />
  <path
     style="color:#000000;fill:#ffffff;stroke-linecap:round;stroke-linejoin:round;-inkscape-stroke:none"
     d="M 9.8046875,3.7050781 A 0.5,0.5 0 0 0 9.21875,4.0996094 0.5,0.5 0 0 0 9.6152344,4.6855469 c 0.9817636,0.1913542 1.7441946,0.9557807 1.9355466,1.9375 a 0.5,0.5 0 0 0 0.585938,0.3945312 0.5,0.5 0 0 0 0.396484,-0.5859375 C 12.264556,5.0533623 11.183001,3.9737234 9.8046875,3.7050781 Z"
     id="path6" />
</svg>
