<?xml version="1.0" encoding="UTF-8" standalone="no"?>
<svg
   width="24"
   height="24"
   viewBox="0 0 24 24"
   fill="none"
   version="1.1"
   id="svg257"
   sodipodi:docname="message.svg"
   inkscape:version="1.2 (dc2aedaf03, 2022-05-15)"
   xmlns:inkscape="http://www.inkscape.org/namespaces/inkscape"
   xmlns:sodipodi="http://sodipodi.sourceforge.net/DTD/sodipodi-0.dtd"
   xmlns="http://www.w3.org/2000/svg"
   xmlns:svg="http://www.w3.org/2000/svg">
  <defs
     id="defs261" />
  <sodipodi:namedview
     id="namedview259"
     pagecolor="#505050"
     bordercolor="#eeeeee"
     borderopacity="1"
     inkscape:showpageshadow="0"
     inkscape:pageopacity="0"
     inkscape:pagecheckerboard="0"
     inkscape:deskcolor="#505050"
     showgrid="false"
     inkscape:zoom="6.2387442"
     inkscape:cx="-9.4570314"
     inkscape:cy="30.13427"
     inkscape:window-width="1920"
     inkscape:window-height="1027"
     inkscape:window-x="-8"
     inkscape:window-y="-8"
     inkscape:window-maximized="1"
     inkscape:current-layer="svg257" />
  <path
     style="color:#000000;fill:#6d9c74;stroke-linecap:round;stroke-linejoin:round;-inkscape-stroke:none"
     d="m 17.347656,8.3164063 a 0.75,0.75 0 0 0 -0.550781,0.1601562 l -4.257812,3.4277345 c -0.539508,0.422891 -1.280934,0.422843 -1.820313,0 L 6.421875,8.4746094 A 0.75,0.75 0 0 0 5.3671875,8.59375 0.75,0.75 0 0 0 5.4863281,9.6464844 l 4.3027344,3.4355466 a 0.750075,0.750075 0 0 0 0.00391,0.0039 c 1.0750192,0.842755 2.5967842,0.842707 3.6718752,0 a 0.750075,0.750075 0 0 0 0.0078,-0.0059 L 17.738281,9.6445313 A 0.75,0.75 0 0 0 17.851562,8.5898438 0.75,0.75 0 0 0 17.347656,8.3164063 Z"
     id="path253" />
  <path
     style="color:#000000;clip-rule:evenodd;fill:#6d9c74;fill-rule:evenodd;stroke-linecap:round;stroke-linejoin:round;-inkscape-stroke:none"
     d="M 6.8886719,2.75 C 3.5619975,2.75 1.25,5.5391221 1.25,8.7949219 v 6.5273441 c 0,3.255826 2.3120061,6.042968 5.6386719,6.042968 h 9.4277341 a 0.750075,0.750075 0 0 0 0.0078,0 c 1.565419,-0.0175 3.054958,-0.67964 4.121093,-1.830078 1.066137,-1.150438 1.617533,-2.689446 1.525391,-4.257812 l 0.002,0.04492 V 8.7949219 l -0.002,0.042969 C 22.062845,7.2695317 21.511464,5.7305092 20.445312,4.5800781 19.379174,3.429672 17.889613,2.7675609 16.324219,2.75 a 0.750075,0.750075 0 0 0 -0.0078,0 z m 0,1.5 h 9.4179691 c 1.153403,0.012939 2.251203,0.4994775 3.039062,1.3496094 C 20.13355,6.4497363 20.540914,7.5881816 20.472656,8.75 a 0.750075,0.750075 0 0 0 0,0.044922 v 6.5273441 a 0.750075,0.750075 0 0 0 0,0.04297 c 0.06826,1.161831 -0.339091,2.300231 -1.126953,3.150391 -0.787862,0.850161 -1.885684,1.336713 -3.039062,1.349609 H 6.8886719 C 4.3755235,19.865234 2.75,17.903833 2.75,15.322266 V 8.7949219 C 2.75,6.2133875 4.3755321,4.25 6.8886719,4.25 Z"
     id="path255" />
</svg>
