<?xml version="1.0" encoding="UTF-8" standalone="no"?>
<svg
   width="24"
   height="24"
   viewBox="0 0 24 24"
   fill="none"
   version="1.1"
   id="svg204"
   sodipodi:docname="basket.svg"
   inkscape:version="1.2 (dc2aedaf03, 2022-05-15)"
   xmlns:inkscape="http://www.inkscape.org/namespaces/inkscape"
   xmlns:sodipodi="http://sodipodi.sourceforge.net/DTD/sodipodi-0.dtd"
   xmlns="http://www.w3.org/2000/svg"
   xmlns:svg="http://www.w3.org/2000/svg">
  <defs
     id="defs208" />
  <sodipodi:namedview
     id="namedview206"
     pagecolor="#505050"
     bordercolor="#eeeeee"
     borderopacity="1"
     inkscape:showpageshadow="0"
     inkscape:pageopacity="0"
     inkscape:pagecheckerboard="0"
     inkscape:deskcolor="#505050"
     showgrid="false"
     inkscape:zoom="35.291667"
     inkscape:cx="12.014168"
     inkscape:cy="12.014168"
     inkscape:window-width="1920"
     inkscape:window-height="1027"
     inkscape:window-x="-8"
     inkscape:window-y="-8"
     inkscape:window-maximized="1"
     inkscape:current-layer="svg204" />
  <path
     style="color:#000000;clip-rule:evenodd;fill:#ffffff;fill-rule:evenodd;stroke-linecap:round;stroke-linejoin:round;-inkscape-stroke:none"
     d="m 7.421875,19.070312 c -0.8283973,0 -1.5136719,0.688413 -1.5136719,1.515625 0,0.827213 0.6864595,1.513672 1.5136719,1.513672 0.8272124,0 1.515625,-0.685274 1.515625,-1.513672 0,-0.828397 -0.6872277,-1.515625 -1.515625,-1.515625 z m 0,1.5 c 0.015602,0 0.015625,2.4e-5 0.015625,0.01563 0,0.0156 0.00116,0.01367 -0.015625,0.01367 -0.016787,0 -0.013672,0.0031 -0.013672,-0.01367 0,-0.01679 -0.00193,-0.01563 0.013672,-0.01563 z"
     id="path196" />
  <path
     style="color:#000000;clip-rule:evenodd;fill:#ffffff;fill-rule:evenodd;stroke-linecap:round;stroke-linejoin:round;-inkscape-stroke:none"
     d="m 18.673828,19.070312 c -0.828397,0 -1.513672,0.687228 -1.513672,1.515625 0,0.828398 0.68646,1.513672 1.513672,1.513672 0.827213,0 1.515625,-0.685274 1.515625,-1.513672 0,-0.828397 -0.687228,-1.515625 -1.515625,-1.515625 z m 0,1.5 c 0.0156,0 0.01563,2.4e-5 0.01563,0.01563 0,0.0156 0.0012,0.01367 -0.01563,0.01367 -0.01679,0 -0.01367,0.0019 -0.01367,-0.01367 0,-0.0156 -0.0019,-0.01563 0.01367,-0.01563 z"
     id="path198" />
  <path
     style="color:#000000;fill:#ffffff;stroke-linecap:round;stroke-linejoin:round;-inkscape-stroke:none"
     d="M 2.8769531,2.5117188 A 0.75,0.75 0 0 0 2.0117188,3.1230469 0.75,0.75 0 0 0 2.6230469,3.9882813 L 4.1308594,4.25 5.0449219,15.146484 C 5.1556543,16.46221 6.26974,17.486328 7.5898437,17.486328 H 18.501953 c 1.263186,0 2.345674,-0.938886 2.527344,-2.189453 l 0.949219,-6.5566406 c 0.180403,-1.2474021 -0.81023,-2.390625 -2.070313,-2.390625 H 5.8125 L 5.578125,3.546875 A 0.750075,0.750075 0 0 0 4.9570312,2.8710938 Z m 3.0625,5.3378906 H 19.908203 c 0.373915,0 0.639534,0.3051849 0.585938,0.6757812 l -0.949219,6.5566404 c -0.07633,0.525431 -0.514157,0.904297 -1.042969,0.904297 H 7.5898437 c -0.5552702,0 -1.0026643,-0.41147 -1.0488281,-0.964844 a 0.750075,0.750075 0 0 0 0,-0.002 z"
     id="path200" />
  <path
     style="color:#000000;fill:#ffffff;stroke-linecap:round;stroke-linejoin:round;-inkscape-stroke:none"
     d="m 14.125,10.044922 a 0.75,0.75 0 0 0 -0.75,0.75 0.75,0.75 0 0 0 0.75,0.75 h 2.773437 a 0.75,0.75 0 0 0 0.75,-0.75 0.75,0.75 0 0 0 -0.75,-0.75 z"
     id="path202" />
</svg>
