<svg width="24" height="24" viewBox="0 0 24 24" fill="none" xmlns="http://www.w3.org/2000/svg">
<path fill-rule="evenodd" clip-rule="evenodd" d="M11.7664 3.52808C7.21636 3.52808 3.52783 7.2166 3.52783 11.7666C3.52783 16.3167 7.21636 20.0052 11.7664 20.0052C16.3164 20.0052 20.0049 16.3167 20.0049 11.7666C20.0049 7.2166 16.3164 3.52808 11.7664 3.52808ZM2.02783 11.7666C2.02783 6.38818 6.38793 2.02808 11.7664 2.02808C17.1448 2.02808 21.5049 6.38818 21.5049 11.7666C21.5049 17.1451 17.1448 21.5052 11.7664 21.5052C6.38793 21.5052 2.02783 17.1451 2.02783 11.7666Z" fill="white"/>
<path fill-rule="evenodd" clip-rule="evenodd" d="M17.487 17.9555C17.7796 17.6622 18.2544 17.6616 18.5477 17.9541L22.0717 21.469C22.365 21.7615 22.3656 22.2363 22.0731 22.5296C21.7806 22.8229 21.3057 22.8235 21.0125 22.531L17.4884 19.0161C17.1952 18.7236 17.1945 18.2487 17.487 17.9555Z" fill="white"/>
</svg>
