<?xml version="1.0" encoding="UTF-8" standalone="no"?>
<svg
   width="24"
   height="24"
   viewBox="0 0 24 24"
   fill="none"
   version="1.1"
   id="svg457"
   sodipodi:docname="user.svg"
   inkscape:version="1.2 (dc2aedaf03, 2022-05-15)"
   xmlns:inkscape="http://www.inkscape.org/namespaces/inkscape"
   xmlns:sodipodi="http://sodipodi.sourceforge.net/DTD/sodipodi-0.dtd"
   xmlns="http://www.w3.org/2000/svg"
   xmlns:svg="http://www.w3.org/2000/svg">
  <defs
     id="defs461" />
  <sodipodi:namedview
     id="namedview459"
     pagecolor="#505050"
     bordercolor="#eeeeee"
     borderopacity="1"
     inkscape:showpageshadow="0"
     inkscape:pageopacity="0"
     inkscape:pagecheckerboard="0"
     inkscape:deskcolor="#505050"
     showgrid="false"
     inkscape:zoom="6.2387442"
     inkscape:cx="-20.997816"
     inkscape:cy="24.203589"
     inkscape:window-width="1920"
     inkscape:window-height="1027"
     inkscape:window-x="-8"
     inkscape:window-y="-8"
     inkscape:window-maximized="1"
     inkscape:current-layer="svg457" />
  <path
     style="color:#000000;fill:#ffffff;stroke-linecap:round;stroke-linejoin:round;-inkscape-stroke:none"
     d="m 11.578125,1.75 c -3.0441601,0 -5.5273438,2.4831837 -5.5273438,5.5273437 0,3.0441603 2.4831837,5.5292973 5.5273438,5.5292973 3.04416,0 5.529297,-2.485137 5.529297,-5.5292973 C 17.107422,4.2331837 14.622285,1.75 11.578125,1.75 Z m 0,1.5 c 2.233501,0 4.029297,1.793843 4.029297,4.0273437 0,2.2335008 -1.795796,4.0292973 -4.029297,4.0292973 -2.2335007,0 -4.0273438,-1.7957965 -4.0273438,-4.0292973 C 7.5507812,5.043843 9.3446243,3.25 11.578125,3.25 Z"
     id="circle453" />
  <path
     style="color:#000000;clip-rule:evenodd;fill:#ffffff;fill-rule:evenodd;stroke-linecap:round;stroke-linejoin:round;-inkscape-stroke:none"
     d="m 9.3164063,15.035156 c -0.8164519,0.05723 -1.6272249,0.171268 -2.4277344,0.341797 -1.1676397,0.239538 -2.6773759,0.69448 -3.3398438,2.019531 a 0.750075,0.750075 0 0 0 -0.00391,0.0098 C 3.3496467,17.81126 3.2482733,18.255465 3.25,18.705078 c -5.05e-5,0.448857 0.09873,0.891232 0.2910156,1.296875 a 0.750075,0.750075 0 0 0 0.00391,0.0059 c 0.6621915,1.363336 2.1910783,1.790622 3.3535156,2.017579 0.00184,3.58e-4 0.00402,0.0016 0.00586,0.002 0.7672085,0.171074 1.54628,0.280004 2.3300781,0.33789 0.00295,5.9e-4 0.00487,-5.8e-4 0.00781,0 0.3509498,0.06912 0.6590251,0.0685 0.9257815,0.06836 1.2205,0.06521 2.444359,0.04655 3.662109,-0.05664 0.817583,-0.05638 1.629695,-0.174328 2.429688,-0.351562 1.152224,-0.226865 2.691877,-0.648551 3.345703,-2.021485 a 0.750075,0.750075 0 0 0 0,-0.002 c 0.389966,-0.820085 0.389966,-1.773665 0,-2.59375 -0.654862,-1.375108 -2.198161,-1.795826 -3.345703,-2.03125 -0.800271,-0.169829 -1.611719,-0.28398 -2.427735,-0.341797 -1.502354,-0.131933 -3.013336,-0.131934 -4.5156247,0 z m 0.1171875,1.494141 a 0.750075,0.750075 0 0 0 0.013672,0 c 1.4149684,-0.124266 2.8388634,-0.124266 4.2539064,0 a 0.750075,0.750075 0 0 0 0.01367,0 c 0.752998,0.05276 1.499904,0.157506 2.238281,0.314453 a 0.750075,0.750075 0 0 0 0.0059,0.002 c 0.994256,0.203976 2.032431,0.659942 2.292969,1.207031 0.19634,0.412896 0.195753,0.891599 0,1.304688 -0.260538,0.547089 -1.298127,1.004821 -2.287109,1.199219 a 0.750075,0.750075 0 0 0 -0.01758,0.0039 c -0.734774,0.163431 -1.481614,0.271037 -2.232422,0.322265 a 0.750075,0.750075 0 0 0 -0.01172,0 c -1.152751,0.09768 -2.311585,0.114971 -3.466797,0.05273 a 0.750075,0.750075 0 0 0 -0.03906,0 c -0.2745901,0 -0.4844814,-0.0043 -0.6679691,-0.04102 a 0.750075,0.750075 0 0 0 -0.095703,-0.01172 C 8.6862074,20.832196 7.9437702,20.724466 7.2128906,20.560547 a 0.750075,0.750075 0 0 0 -0.021484,-0.0059 C 6.1943384,20.360368 5.1649318,19.910223 4.8945312,19.353516 4.7989104,19.149655 4.7496876,18.928272 4.75,18.703125 a 0.750075,0.750075 0 0 0 0,-0.002 0.750075,0.750075 0 0 0 0,-0.002 c -8.429e-4,-0.219471 0.048461,-0.436755 0.1425781,-0.634766 0.2542544,-0.505252 1.3236254,-1.019091 2.296875,-1.21875 a 0.750075,0.750075 0 0 0 0.00586,-0.002 c 0.7378573,-0.157438 1.4856027,-0.262291 2.2382813,-0.314453 z"
     id="path455" />
</svg>
